<svg width="100" height="100" viewBox="0 0 100 100" fill="none" xmlns="http://www.w3.org/2000/svg">
<path d="M100 50C100 77.6142 77.6142 100 50 100C22.3858 100 0 77.6142 0 50C0 22.3858 22.3858 0 50 0C77.6142 0 100 22.3858 100 50ZM4.67517 50C4.67517 75.0322 24.9678 95.3248 50 95.3248C75.0322 95.3248 95.3248 75.0322 95.3248 50C95.3248 24.9678 75.0322 4.67517 50 4.67517C24.9678 4.67517 4.67517 24.9678 4.67517 50Z" fill="#DC3F3F"/>
<path d="M37.1332 32.567L49.9999 45.4337L62.7999 32.6337C63.0826 32.3327 63.4232 32.092 63.8013 31.9259C64.1793 31.7598 64.587 31.6717 64.9999 31.667C65.8839 31.667 66.7318 32.0182 67.3569 32.6433C67.982 33.2684 68.3332 34.1163 68.3332 35.0003C68.341 35.409 68.2652 35.8149 68.1104 36.1933C67.9556 36.5716 67.7252 36.9143 67.4332 37.2003L54.4666 50.0003L67.4332 62.967C67.9826 63.5045 68.3048 64.2323 68.3332 65.0003C68.3332 65.8844 67.982 66.7322 67.3569 67.3573C66.7318 67.9825 65.8839 68.3337 64.9999 68.3337C64.5751 68.3513 64.1512 68.2804 63.7553 68.1254C63.3593 67.9705 62.9999 67.7349 62.6999 67.4337L49.9999 54.567L37.1666 67.4003C36.8849 67.6912 36.5484 67.9235 36.1766 68.0837C35.8047 68.2439 35.4048 68.3288 34.9999 68.3337C34.1158 68.3337 33.268 67.9825 32.6429 67.3573C32.0177 66.7322 31.6666 65.8844 31.6666 65.0003C31.6588 64.5917 31.7346 64.1857 31.8894 63.8074C32.0441 63.4291 32.2746 63.0864 32.5666 62.8003L45.5332 50.0003L32.5666 37.0337C32.0172 36.4962 31.695 35.7684 31.6666 35.0003C31.6666 34.1163 32.0177 33.2684 32.6429 32.6433C33.268 32.0182 34.1158 31.667 34.9999 31.667C35.7999 31.677 36.5666 32.0003 37.1332 32.567Z" fill="#DC3F3F"/>
</svg>
