<svg width="35" height="30" viewBox="0 0 35 30" fill="none" xmlns="http://www.w3.org/2000/svg">
<path fill-rule="evenodd" clip-rule="evenodd" d="M21.254 0.728332C22.4145 0.24749 23.6583 0 24.9144 0C26.1706 0 27.4144 0.24749 28.5749 0.728332C29.7354 1.20917 30.7897 1.91394 31.6777 2.80238C32.566 3.69031 33.2706 4.74451 33.7513 5.90479C34.2322 7.06526 34.4797 8.30909 34.4797 9.56524C34.4797 10.8214 34.2322 12.0652 33.7513 13.2257C33.2705 14.3861 32.5658 15.4403 31.6775 16.3283L18.4175 29.5883C17.905 30.1009 17.0739 30.1009 16.5614 29.5883L3.30136 16.3283C1.50768 14.5346 0.5 12.1019 0.5 9.56524C0.5 7.02859 1.50768 4.59584 3.30136 2.80216C5.09504 1.00848 7.52779 0.000802159 10.0644 0.000802159C12.6011 0.000802159 15.0338 1.00848 16.8275 2.80216L17.4894 3.46408L18.1511 2.80238C19.0392 1.91394 20.0935 1.20917 21.254 0.728332ZM29.8211 4.6581C29.1769 4.01355 28.412 3.50224 27.5701 3.1534C26.7281 2.80455 25.8258 2.625 24.9144 2.625C24.0031 2.625 23.1007 2.80455 22.2588 3.1534C21.4169 3.50224 20.652 4.01355 20.0077 4.6581L18.4175 6.24832C17.905 6.76088 17.0739 6.76088 16.5614 6.24832L14.9714 4.65832C13.67 3.35692 11.9049 2.6258 10.0644 2.6258C8.22398 2.6258 6.45891 3.35692 5.15751 4.65832C3.85612 5.95971 3.125 7.72479 3.125 9.56524C3.125 11.4057 3.85612 13.1708 5.15751 14.4722L17.4894 26.8041L29.8214 14.4722C30.4659 13.8279 30.9774 13.0628 31.3263 12.2209C31.6751 11.3789 31.8547 10.4766 31.8547 9.56524C31.8547 8.65392 31.6751 7.75153 31.3263 6.90962C30.9774 6.06771 30.4657 5.30235 29.8211 4.6581Z" fill="#F65F18"/>
</svg>
