<svg width="70" height="70" viewBox="0 0 70 70" fill="current" xmlns="http://www.w3.org/2000/svg">
<path d="M13.3671 50.5199C10.3629 47.329 8.75 43.7503 8.75 37.949C8.75 27.7407 15.9162 18.5911 26.3375 14.0674L28.9421 18.0866C19.215 23.3482 17.3133 30.1761 16.555 34.4811C18.1213 33.6703 20.1717 33.3874 22.1812 33.574C27.4429 34.0611 31.5904 38.3807 31.5904 43.7503C31.5904 46.4577 30.5149 49.0542 28.6005 50.9687C26.686 52.8831 24.0895 53.9586 21.3821 53.9586C19.8848 53.9457 18.4051 53.635 17.029 53.0446C15.653 52.4543 14.4082 51.596 13.3671 50.5199ZM42.5337 50.5199C39.5296 47.329 37.9167 43.7503 37.9167 37.949C37.9167 27.7407 45.0829 18.5911 55.5042 14.0674L58.1087 18.0866C48.3817 23.3482 46.48 30.1761 45.7217 34.4811C47.2879 33.6703 49.3383 33.3874 51.3479 33.574C56.6096 34.0611 60.7571 38.3807 60.7571 43.7503C60.7571 46.4577 59.6816 49.0542 57.7671 50.9687C55.8527 52.8831 53.2562 53.9586 50.5487 53.9586C49.0515 53.9457 47.5717 53.635 46.1957 53.0446C44.8197 52.4543 43.5749 51.596 42.5337 50.5199Z" fill="current"/>
</svg>