<svg width="21" height="22" viewBox="0 0 21 22" fill="none" xmlns="http://www.w3.org/2000/svg">
<path d="M10.99 18.7175C10.8472 18.8201 10.6758 18.8752 10.5 18.8752C10.3242 18.8752 10.1528 18.8201 10.01 18.7175C5.78462 15.7057 1.30025 9.51075 5.83362 5.03425C7.07817 3.80999 8.75423 3.12423 10.5 3.125C12.25 3.125 13.9291 3.81188 15.1664 5.03338C19.6997 9.50988 15.2154 15.704 10.99 18.7175Z" stroke="white" stroke-width="1.5" stroke-linecap="round" stroke-linejoin="round"/>
<path d="M10.5 11C10.9641 11 11.4092 10.8156 11.7374 10.4874C12.0656 10.1592 12.25 9.71413 12.25 9.25C12.25 8.78587 12.0656 8.34075 11.7374 8.01256C11.4092 7.68437 10.9641 7.5 10.5 7.5C10.0359 7.5 9.59075 7.68437 9.26256 8.01256C8.93437 8.34075 8.75 8.78587 8.75 9.25C8.75 9.71413 8.93437 10.1592 9.26256 10.4874C9.59075 10.8156 10.0359 11 10.5 11Z" stroke="white" stroke-width="1.5" stroke-linecap="round" stroke-linejoin="round"/>
</svg>
