<svg width="20" height="20" viewBox="0 0 20 20" fill="none" xmlns="http://www.w3.org/2000/svg">
<path d="M12.0134 17.3481C12.3028 17.1722 12.5131 16.8811 12.5982 16.5389C12.6832 16.1966 12.636 15.8311 12.4669 15.5229L11.8295 14.3607C11.6604 14.0525 11.3833 13.8267 11.0592 13.7331C10.735 13.6395 10.3904 13.6856 10.101 13.8615C7.91913 15.1875 6.64419 12.8631 6.00672 11.7009C5.36925 10.5387 4.09432 8.21431 6.27623 6.88833C6.56557 6.7125 6.7759 6.42142 6.86095 6.07913C6.94599 5.73684 6.89879 5.37138 6.72972 5.06315L6.09226 3.90096C5.92319 3.59273 5.64611 3.36697 5.32196 3.27335C4.99782 3.17973 4.65317 3.22592 4.36383 3.40176C1.63644 5.05923 0.637468 7.2159 3.82481 13.0269C7.01215 18.8378 9.28605 19.0055 12.0134 17.3481Z" stroke="white" stroke-width="2" stroke-linecap="round" stroke-linejoin="round"/>
<path d="M17.8194 12.5493C18.3989 10.2119 18.076 7.71683 16.9217 5.61228C15.7673 3.50774 13.8759 1.96587 11.6631 1.32542M14.4792 11.5846C14.6519 10.8904 14.6933 10.1656 14.6012 9.45149C14.509 8.73743 14.2851 8.04813 13.9422 7.42297C13.5993 6.7978 13.1441 6.24903 12.6027 5.808C12.0613 5.36696 11.4442 5.04231 10.7867 4.85259M11.157 10.6128C11.2729 10.1451 11.2082 9.64589 10.9772 9.22479C10.7463 8.80369 10.3679 8.49514 9.92511 8.3669" stroke="white" stroke-width="2" stroke-linecap="round" stroke-linejoin="round"/>
</svg>
